<svg width="60" height="60" viewBox="0 0 60 60" fill="none" xmlns="http://www.w3.org/2000/svg">
<path fill-rule="evenodd" clip-rule="evenodd" d="M20 40H40C40.663 40 41.2989 40.2634 41.7678 40.7322C42.2366 41.2011 42.5 41.837 42.5 42.5C42.5 43.163 42.2366 43.7989 41.7678 44.2678C41.2989 44.7366 40.663 45 40 45H17.5C16.837 45 16.2011 44.7366 15.7322 44.2678C15.2634 43.7989 15 43.163 15 42.5V10H12.5C11.837 10 11.2011 9.73661 10.7322 9.26777C10.2634 8.79893 10 8.16304 10 7.5C10 6.83696 10.2634 6.20107 10.7322 5.73223C11.2011 5.26339 11.837 5 12.5 5H17.5C18.163 5 18.7989 5.26339 19.2678 5.73223C19.7366 6.20107 20 6.83696 20 7.5V12.5025L20.1825 12.5H44.8175C47.68 12.5 50 14.7375 50 17.5C50 17.865 49.9575 18.2275 49.875 18.585L46.9975 31.085C46.4725 33.3725 44.3675 35 41.9375 35H20.1825L20 34.9975V40ZM18.75 55C17.7554 55 16.8016 54.6049 16.0983 53.9016C15.3951 53.1984 15 52.2446 15 51.25C15 50.2554 15.3951 49.3016 16.0983 48.5984C16.8016 47.8951 17.7554 47.5 18.75 47.5C19.7446 47.5 20.6984 47.8951 21.4017 48.5984C22.1049 49.3016 22.5 50.2554 22.5 51.25C22.5 52.2446 22.1049 53.1984 21.4017 53.9016C20.6984 54.6049 19.7446 55 18.75 55ZM41.25 55C40.2554 55 39.3016 54.6049 38.5983 53.9016C37.8951 53.1984 37.5 52.2446 37.5 51.25C37.5 50.2554 37.8951 49.3016 38.5983 48.5984C39.3016 47.8951 40.2554 47.5 41.25 47.5C42.2446 47.5 43.1984 47.8951 43.9016 48.5984C44.6049 49.3016 45 50.2554 45 51.25C45 52.2446 44.6049 53.1984 43.9016 53.9016C43.1984 54.6049 42.2446 55 41.25 55ZM20 17.5V30H42.0775L45 17.5H20Z" fill="#F8F8F8"/>
</svg>
