<svg width="60" height="60" viewBox="0 0 60 60" fill="none" xmlns="http://www.w3.org/2000/svg">
<path d="M30 30C27.3478 30 24.8043 28.9464 22.9289 27.0711C21.0536 25.1957 20 22.6522 20 20C20 17.3478 21.0536 14.8043 22.9289 12.9289C24.8043 11.0536 27.3478 10 30 10C32.6522 10 35.1957 11.0536 37.0711 12.9289C38.9464 14.8043 40 17.3478 40 20C40 22.6522 38.9464 25.1957 37.0711 27.0711C35.1957 28.9464 32.6522 30 30 30ZM30 37.5C37.965 37.5 45.1125 38.9275 50 45.1575V50H10V45.1575C14.8875 38.925 22.035 37.5 30 37.5Z" fill="#F8F8F8"/>
</svg>
