<svg width="1920" height="4000" viewBox="0 0 1920 4000" fill="none" xmlns="http://www.w3.org/2000/svg">
<g opacity="0.25">
<g style="mix-blend-mode:difference" opacity="0.85" filter="url(#filter0_f_2_12)">
<path d="M2531 406.5C2531 888.368 2128.73 1279 1632.5 1279C1136.27 1279 734 888.368 734 406.5C734 -75.3684 1136.27 -466 1632.5 -466C2128.73 -466 2531 -75.3684 2531 406.5Z" fill="#E3E4E6"/>
<path d="M1114 779.5C1114 1129.92 821.418 1414 460.5 1414C99.5819 1414 -193 1129.92 -193 779.5C-193 429.075 99.5819 145 460.5 145C821.418 145 1114 429.075 1114 779.5Z" fill="#EE5873"/>
<path d="M1210 232.5C1210 582.925 917.418 867 556.5 867C195.582 867 -97 582.925 -97 232.5C-97 -117.925 195.582 -402 556.5 -402C917.418 -402 1210 -117.925 1210 232.5Z" fill="#5778A3"/>
<path d="M1893 1101C1893 1508.03 1544.01 1838 1113.5 1838C682.994 1838 334 1508.03 334 1101C334 693.966 682.994 364 1113.5 364C1544.01 364 1893 693.966 1893 1101Z" fill="#3B999B"/>
<path d="M1009 3683.5C1009 4033.92 716.418 4318 355.5 4318C-5.41809 4318 -298 4033.92 -298 3683.5C-298 3333.08 -5.41809 3049 355.5 3049C716.418 3049 1009 3333.08 1009 3683.5Z" fill="#EE5873"/>
<path d="M2213 2169.5C2213 2519.92 1920.42 2804 1559.5 2804C1198.58 2804 906 2519.92 906 2169.5C906 1819.08 1198.58 1535 1559.5 1535C1920.42 1535 2213 1819.08 2213 2169.5Z" fill="#224B81"/>
</g>
</g>
<defs>
<filter id="filter0_f_2_12" x="-798" y="-966" width="3829" height="5784" filterUnits="userSpaceOnUse" color-interpolation-filters="sRGB">
<feFlood flood-opacity="0" result="BackgroundImageFix"/>
<feBlend mode="normal" in="SourceGraphic" in2="BackgroundImageFix" result="shape"/>
<feGaussianBlur stdDeviation="250" result="effect1_foregroundBlur_2_12"/>
</filter>
</defs>
</svg>
